<?xml version="1.0" encoding="utf-8"?>
<!-- Generator: Adobe Illustrator 28.1.0, SVG Export Plug-In . SVG Version: 6.00 Build 0)  -->
<svg version="1.1" id="レイヤー_1" xmlns="http://www.w3.org/2000/svg" xmlns:xlink="http://www.w3.org/1999/xlink" x="0px"
	 y="0px" viewBox="0 0 260 74" style="enable-background:new 0 0 260 74;" xml:space="preserve">
<style type="text/css">
	.st0{filter:url(#Adobe_OpacityMaskFilter);}
	.st1{mask:url(#surface1_00000015323536145950188240000005682755716295202449_);}
</style>
<defs>
	<filter id="Adobe_OpacityMaskFilter" filterUnits="userSpaceOnUse" x="0.2" y="0.3" width="259.9" height="73.4">
		
			<feColorMatrix  type="matrix" values="-1 0 0 0 1  0 -1 0 0 1  0 0 -1 0 1  0 0 0 1 0" color-interpolation-filters="sRGB" result="source"/>
		<feFlood  style="flood-color:white;flood-opacity:1" result="back"/>
		<feBlend  in="source" in2="back" mode="normal"/>
	</filter>
</defs>
<mask maskUnits="userSpaceOnUse" x="0.2" y="0.3" width="259.9" height="73.4" id="surface1_00000141414965525436240320000015325860382516537755_">
	<g class="st0">
	</g>
</mask>
<g id="surface1" style="mask:url(#surface1_00000141414965525436240320000015325860382516537755_);">
	<path d="M59.2,47.8c-2-2-5.2-2.2-7.4-0.6l-3.3-3.3c6-9-10.4-14.6-11-3.7c-0.2,5,6,8,9.8,4.9l3.3,3.3c-1.4,2-1.5,4.7-0.1,6.7
		l-3.3,3.1c-3.3-2.7-9.5-0.4-9.3,3.9c0.3,8.4,15.3,5.1,10.6-2.7l3.3-3.1C57.1,60.8,64.3,52.7,59.2,47.8z"/>
	<path d="M36.8,25.5l3.5-3.2c1.8,1.2,4.8,1.2,6.6,0l3.5,3.2c-3.4,4.8,3.1,11.3,7.9,7.9l3.1,3.5c-4.8,8.1,8.5,13.6,9.2,3.3
		c0.1-4.4-4.7-7.5-8-4.6l-3-3.4c4.3-5-3-12.3-8-8l-3.4-3c6.1-10.4-15.3-10.4-9.2,0l-3.4,3c-2-1.7-4.9-1.8-6.9-0.3l-2.2-2.3
		c1.2-1.6,1.5-3.7,0.7-5.3l2.9-2.5c4.2,3.5,11-3.3,7.3-7.4c-3.7-4.3-11,1.5-8.4,6.1L26,15c-9.4-5.4-11.7,13.5-0.8,7.9l2.2,2.3
		C21.1,36.6,42.4,37.5,36.8,25.5L36.8,25.5z"/>
	<path d="M21.6,34.5c-4.2-0.2-6.5,5.8-4,9.2l-2.3,2.7c-1.4-1.2-3.6-1.3-5.1-0.1l-2.9-3.4c0.8-1.5,0.8-3.8,0-5.4l2.7-3.4
		c8.4,4.7,9.8-12.6,0.7-9.2l-1.6-2.8c4-5.1-1.4-8.2-4.6-3.1c-2.4,3.5,0,6.9,3.3,4.4L9.3,26c-1.7,1.7-1.9,5-0.5,6.9l-2.6,3.2
		c-8.1-5.3-8,13.7,0,8.2L9,47.6c-4.9,10.7,12.5,11,7.5,0.1l2.3-2.7C26.5,50.1,30.2,34.9,21.6,34.5L21.6,34.5z"/>
	<path d="M83.4,35.2c-0.9,0-1.7,0.4-2.3,1l-2.8-3.3c1.3-1.9,1.1-4.9-0.4-6.6l1.3-2.1c3.5,2.9,5.9-1.1,3.4-4.7
		c-3-5.1-8.3-1.6-4.6,3.3l-1.5,2.3c-9.2-3.9-8,14,0.6,9l3,3.6c-1.5,2.8,0.3,7.7,3.3,7.6C88.3,45.5,88.3,35.1,83.4,35.2L83.4,35.2z"
		/>
	<path d="M17.4,12.8c1.3-1.2,2-2.7,1.9-3.9l3.3-2.3c2.5,1.2,7.5-2.3,6.6-4.8c-1.7-3.8-8.9,0.7-7.9,3.6l-2.8,2
		C11.8,4.1,7.9,19.2,17.4,12.8L17.4,12.8z"/>
	<path d="M81.8,56.3c-0.8-0.4-1.9-0.1-3,0.6l-1.1-2.2c7.2-10.3-11.1-13.1-6.9-1l-3.4,3.5c-9-4.2-11,13.2-0.7,8.5l2.5,3.2
		c-3.8,4.3,0.4,6.7,3.8,3.2c3.7-3.3,1.9-7.6-2.5-4.4L68,64.5c1.6-1.8,1.9-4.4,0.7-6.1l3.2-3.4c1.1,1,3,1.3,4.4,0.7l1.3,2.5
		c-1.5,1.8-2,5.1-0.3,5.7C80.1,65.5,85.2,58,81.8,56.3L81.8,56.3z"/>
	<path d="M99.4,12.4h2.3l3.7,10l3.8-10h2.2v12.2h-1.8v-9.2l-3.5,9.2h-1.5l-3.5-9.2v9.2h-1.7V12.4z"/>
	<path d="M113.6,20.2c-0.5-6.1,9.2-6.3,8.7-0.1C122.8,26.3,113.1,26.5,113.6,20.2L113.6,20.2z M115.4,20.2c-0.5,4.3,5.5,4.3,5,0
		C120.9,16,115,16,115.4,20.2z"/>
	<path d="M124.2,12.4h1.8V17c6.7-5.3,6.1,3.4,6,7.6h-1.8c-0.4-1.6,1.3-7.8-1.7-7.6c-3.7-0.1-2.3,5.5-2.5,7.6h-1.8V12.4L124.2,12.4z"
		/>
	<path d="M133.6,22.2c0-3.1,3.7-3,6-3.1c0.6-2.5-3.3-3.2-3.9-1.1l-1.6-0.2c0.3-2.8,4.9-3.1,6.5-1.5c1.4,1.3,0.6,6.5,0.8,8.3h-1.7
		v-1.1C138.1,25.5,133.5,25.4,133.6,22.2L133.6,22.2z M135.4,22.1c0.5,2.9,5,0.9,4.2-1.8C138,20.4,135.4,20.1,135.4,22.1L135.4,22.1
		z"/>
	<path d="M143.5,15.8h1.8v1.3c1.2-1.9,4.4-2.3,5.2,0c6.6-5.6,5.8,3.5,5.7,7.6h-1.8c-0.4-1.4,1.2-7.8-1.4-7.6
		c-3.4-0.2-1.9,5.8-2.2,7.6h-1.8c-0.1-1,0.4-6.5-0.4-7.2c-4.2-2.3-3.2,5.1-3.3,7.2h-1.8C143.5,24.6,143.5,15.8,143.5,15.8z"/>
	<path d="M157.7,20.3c-0.5-6.5,9.4-6.1,8.2,0.4h-6.4c-0.4,2.8,3.7,4.2,4.6,1.5h1.7C164.8,26.9,156.9,25.2,157.7,20.3L157.7,20.3z
		 M159.8,18.1c-0.2,0.4-0.3,0.8-0.3,1.3h4.7C164.5,16.7,160.9,15.8,159.8,18.1L159.8,18.1z"/>
	<path d="M167.5,20.3c-0.4-3.8,4-6.5,6.6-3.5v-4.4h1.8v12.2h-1.7v-1.2C171.7,26.8,166.9,24.1,167.5,20.3z M169.4,20.2
		c-0.5,4.4,5.5,4,4.8-0.3C174.5,15.9,168.8,16.1,169.4,20.2z"/>
	<path d="M185,24.6h-1.7V12.4h1.8v4.5c8.7-7.3,8.6,13.7,0,6.6L185,24.6L185,24.6z M185,19.9c-0.5,2.6,2.1,4.8,4.1,2.8
		C192,18.6,186,13.5,185,19.9z"/>
	<path d="M193.6,12.4h1.8v1.8h-1.8V12.4z M193.6,15.8h1.8v8.9h-1.8V15.8z"/>
	<path d="M197.6,15.8h1.8V17c1.1-1.7,3.9-2.1,5.2-0.7c1.3,1.2,0.5,6.7,0.7,8.3h-1.8c-0.4-1.6,1.3-7.8-1.7-7.6
		c-3.7-0.1-2.3,5.5-2.5,7.6h-1.8L197.6,15.8L197.6,15.8z"/>
	<path d="M211.8,23.2l6.8-9.2h-6.6v-1.6h8.9v1.5L214,23h7l-0.3,1.6h-9V23.2z"/>
	<path d="M222,22.2c0-3.1,3.7-3,6-3.1c0.6-2.5-3.3-3.2-3.9-1.1l-1.6-0.2c0.3-2.8,4.9-3.1,6.5-1.5c1.4,1.3,0.6,6.5,0.8,8.3H228v-1.1
		C226.5,25.5,221.9,25.4,222,22.2L222,22.2z M223.8,22.1c0.5,2.9,5,0.9,4.2-1.8C226.4,20.4,223.8,20.1,223.8,22.1L223.8,22.1z"/>
	<path d="M231.9,26.5c1.7,0.7,2.3-0.8,2.7-2.2l-3.8-8.6h2l2.6,6.6l2.4-6.6h1.9l-3.8,9.6c-0.6,2.2-2.3,3.4-4.4,2.6L231.9,26.5
		L231.9,26.5z"/>
	<path d="M240.4,20.3c-0.5-6.5,9.4-6.1,8.2,0.4h-6.4c-0.4,2.8,3.7,4.2,4.6,1.5h1.7C247.6,26.9,239.7,25.2,240.4,20.3L240.4,20.3z
		 M242.6,18.1c-0.2,0.4-0.3,0.8-0.3,1.3h4.7C247.2,16.7,243.7,15.8,242.6,18.1L242.6,18.1z"/>
	<path d="M250.3,20.3c-0.4-3.8,4-6.5,6.6-3.5v-4.4h1.8v12.2h-1.7v-1.2C254.4,26.8,249.7,24.1,250.3,20.3z M252.1,20.2
		c-0.5,4.4,5.5,4,4.8-0.3C257.2,15.9,251.6,16.1,252.1,20.2z"/>
	<path d="M99.5,38.1v-7.3h1.9c0.6,2.7-1.8,11.1,2.9,10.9c4.6,0.2,2.2-8.3,2.8-10.9h1.9c-0.3,2.5,0.8,9.6-1.2,11.3
		C104.5,44.8,98.9,43,99.5,38.1L99.5,38.1z"/>
	<path d="M111.2,34.1h1.8v1.3c1.1-1.7,3.9-2.1,5.2-0.7c1.3,1.2,0.5,6.7,0.7,8.3h-1.8c-0.4-1.6,1.3-7.8-1.7-7.6
		c-3.7-0.1-2.3,5.5-2.5,7.6h-1.8L111.2,34.1L111.2,34.1z"/>
	<path d="M121.1,30.8h1.8v1.8h-1.8V30.8z M121.1,34.1h1.8V43h-1.8V34.1z"/>
	<path d="M128.6,41.1l2.5-7h1.9l-3.5,8.9h-1.9l-3.5-8.9h2L128.6,41.1z"/>
	<path d="M133.7,38.7c-0.5-6.5,9.4-6.1,8.2,0.4h-6.4c-0.4,2.8,3.7,4.2,4.6,1.5h1.7C140.9,45.3,133,43.6,133.7,38.7L133.7,38.7z
		 M135.9,36.5c-0.2,0.4-0.3,0.8-0.3,1.3h4.7C140.5,35.1,137,34.2,135.9,36.5L135.9,36.5z"/>
	<path d="M143.9,34.1h1.8v1.3c0.8-1.1,2-1.7,3.4-1.4l-0.2,1.6c-4.2-1.1-3,5.1-3.1,7.4h-1.8V34.1z"/>
	<path d="M155.7,40.6c0-0.9-0.4-1.2-1.5-1.3c-10.1-1,0.5-10,3.1-3l-1.6,0.2c-0.8-3.2-6.9,0-2.4,1.1c1.1,0.2,3,0.5,3.5,1.1
		c3.6,4.7-6.8,6.7-7,1.6h1.7C151.6,42.3,155.7,42.6,155.7,40.6L155.7,40.6z"/>
	<path d="M159.3,30.8h1.8v1.8h-1.8V30.8z M159.3,34.1h1.8V43h-1.8V34.1z"/>
	<path d="M163.9,40.1v-4.5h-1.4v-1.4h1.4v-2.4h1.8v2.4h2.3v1.4h-2.3c0.3,1.6-1.2,7.5,2.3,6l0.3,1.4C166,43.8,163.6,42.8,163.9,40.1z
		"/>
	<path d="M169.9,44.9c1.7,0.7,2.3-0.7,2.7-2.2l-3.7-8.6h2l2.6,6.6l2.4-6.6h1.9l-3.8,9.6c-0.6,2.2-2.3,3.4-4.4,2.6L169.9,44.9
		L169.9,44.9z"/>
	<path d="M182.5,38.6c-0.5-6.1,9.2-6.3,8.7-0.1C191.8,44.7,182,44.9,182.5,38.6L182.5,38.6z M184.4,38.6c-0.5,4.3,5.5,4.3,5,0
		C189.8,34.3,183.9,34.4,184.4,38.6z"/>
	<path d="M193.7,35.6h-1.4v-1.4h1.4c-0.5-2.8,2.1-4.1,4.5-3.3l-0.3,1.4c-1.5-0.6-2.7,0.3-2.4,2h2.2v1.4h-2.2V43h-1.8V35.6z"/>
	<path d="M107.3,58.2h-5.1l-1.2,3.2h-2l4.7-12.2h2.1l4.6,12.2h-2L107.3,58.2z M104.7,51.1l-2,5.5h4L104.7,51.1L104.7,51.1z"/>
	<path d="M111.8,52.5h1.8v1.3c0.8-1.1,2.1-1.7,3.4-1.4l-0.2,1.6c-4.2-1.1-3,5.1-3.1,7.4h-1.8V52.5z"/>
	<path d="M119.2,58.4v-4.5h-1.4v-1.4h1.4v-2.4h1.8v2.4h2.3v1.4h-2.3c0.3,1.6-1.2,7.5,2.3,6l0.3,1.4
		C121.2,62.2,118.8,61.1,119.2,58.4z"/>
	<path d="M124.8,49.1h1.8V51h-1.8V49.1z M124.8,52.5h1.8v8.9h-1.8V52.5z"/>
	<path d="M129.4,54H128v-1.4h1.4c-0.5-2.8,2.1-4.1,4.5-3.3l-0.3,1.4c-1.5-0.6-2.7,0.3-2.4,2h2.2V54h-2.2v7.4h-1.8V54z M134.8,49.1
		h1.8V51h-1.8V49.1z M134.9,52.5h1.8v8.9h-1.8V52.5z"/>
	<path d="M138.6,57c-0.7-4.9,7.2-6.9,8-1.8l-1.8,0.3c-0.6-3.4-4.9-1.5-4.3,1.4c-0.6,3.1,3.9,4.8,4.5,1.4h1.8
		C146.2,63.6,137.9,62.2,138.6,57L138.6,57z"/>
	<path d="M148.5,49.1h1.8V51h-1.8V49.1z M148.6,52.5h1.8v8.9h-1.8V52.5z"/>
	<path d="M152,58.9c0-3.1,3.7-3,6-3.1c0.6-2.5-3.3-3.2-3.9-1.1l-1.6-0.2c0.3-2.8,4.9-3.1,6.5-1.5c1.4,1.3,0.6,6.5,0.8,8.3H158v-1.1
		C156.5,62.3,151.9,62.1,152,58.9L152,58.9z M153.8,58.9c0.5,2.9,5,0.9,4.2-1.8C156.5,57.2,153.8,56.8,153.8,58.9L153.8,58.9z"/>
	<path d="M161.9,49.2h1.8v12.2h-1.8V49.2z"/>
	<path d="M170,49.2h1.9v12.2H170V49.2z"/>
	<path d="M174.3,52.5h1.8v1.3c1.1-1.7,3.9-2.1,5.2-0.7c1.3,1.2,0.5,6.7,0.7,8.3h-1.8c-0.4-1.6,1.3-7.8-1.7-7.6
		c-3.7-0.1-2.3,5.5-2.5,7.6h-1.8L174.3,52.5L174.3,52.5z"/>
	<path d="M184.7,58.4v-4.5h-1.4v-1.4h1.4v-2.4h1.8v2.4h2.3v1.4h-2.3c0.3,1.6-1.2,7.5,2.3,6l0.3,1.4
		C186.8,62.2,184.4,61.1,184.7,58.4z"/>
	<path d="M190.1,57c-0.5-6.5,9.4-6.1,8.2,0.4h-6.4c-0.3,2.8,3.7,4.2,4.6,1.5h1.7C197.2,63.6,189.4,62,190.1,57L190.1,57z
		 M192.2,54.8c-0.2,0.4-0.3,0.8-0.3,1.3h4.7C196.9,53.5,193.3,52.6,192.2,54.8L192.2,54.8z"/>
	<path d="M200.2,49.2h1.8v12.2h-1.8V49.2z"/>
	<path d="M204.3,49.2h1.8v12.2h-1.8V49.2z"/>
	<path d="M208.3,49.1h1.8V51h-1.8V49.1z M208.4,52.5h1.8v8.9h-1.8V52.5z"/>
	<path d="M218.7,60.6v-0.9c-8.7,7.1-8.6-13,0-6.1v-1.1h1.8c-0.1,1.9,0.3,8.5-0.3,10.1c-0.9,3.3-7.5,3.1-7.7-0.5h1.8
		C215,64.7,219.3,63.5,218.7,60.6L218.7,60.6z M218.1,54.5c-3-3.1-6,3-3,4.9C218.3,61,219.6,56.5,218.1,54.5L218.1,54.5z"/>
	<path d="M222.4,57c-0.5-6.5,9.4-6.1,8.2,0.4h-6.4c-0.3,2.8,3.7,4.2,4.6,1.5h1.7C229.5,63.6,221.7,62,222.4,57L222.4,57z
		 M224.5,54.8c-0.2,0.4-0.3,0.8-0.3,1.3h4.7C229.2,53.5,225.6,52.6,224.5,54.8L224.5,54.8z"/>
	<path d="M232.5,52.5h1.8v1.3c1.1-1.7,3.9-2.1,5.2-0.7c1.3,1.2,0.5,6.7,0.7,8.3h-1.8c-0.4-1.6,1.3-7.8-1.7-7.6
		c-3.7-0.1-2.3,5.5-2.5,7.6h-1.8L232.5,52.5L232.5,52.5z"/>
	<path d="M242.1,57c-0.7-4.9,7.2-6.9,8-1.8l-1.8,0.3c-0.6-3.4-4.9-1.5-4.3,1.4c-0.6,3.1,3.9,4.8,4.5,1.4h1.8
		C249.7,63.6,241.4,62.2,242.1,57L242.1,57z"/>
	<path d="M251.8,57c-0.5-6.5,9.4-6.1,8.2,0.4h-6.4c-0.4,2.8,3.7,4.2,4.6,1.5h1.7C258.9,63.6,251,62,251.8,57L251.8,57z M253.9,54.8
		c-0.2,0.4-0.3,0.8-0.3,1.3h4.7C258.6,53.5,255,52.6,253.9,54.8L253.9,54.8z"/>
</g>
<image style="overflow:visible;" width="260" height="74" xlink:href="mbzuai-logoW.png"  transform="matrix(1 0 0 1 -7.0745 -202.1102)">
</image>
</svg>
